<?xml version="1.0" encoding="UTF-8"?>
<svg id="Layer_1" data-name="Layer 1" xmlns="http://www.w3.org/2000/svg" viewBox="0 0 514.96 110.3">
  <defs>
    <style>
      .cls-1 {
        fill: #fff;
      }
    </style>
  </defs>
  <g>
    <path class="cls-1" d="M0,108.41V0h26.47v52.15c.55-1.42,1.73-2.93,3.54-4.53,1.81-1.6,4.17-2.97,7.11-4.1,2.93-1.13,6.25-1.69,9.97-1.69,6.07,0,11.31,1.59,15.72,4.77,4.41,3.18,7.8,7.37,10.15,12.57,2.36,5.2,3.54,10.85,3.54,16.94s-1.18,11.74-3.54,16.94c-2.36,5.2-5.74,9.38-10.15,12.53-4.41,3.15-9.65,4.73-15.72,4.73-2.96,0-5.8-.54-8.54-1.62-2.73-1.08-5.17-2.49-7.3-4.25-2.13-1.76-3.8-3.66-5-5.71v9.69H0ZM50.47,76.1c0-2.31-.52-4.42-1.54-6.34-1.03-1.92-2.44-3.44-4.25-4.57-1.81-1.13-3.86-1.69-6.17-1.69s-4.36.57-6.17,1.69c-1.81,1.13-3.23,2.65-4.29,4.57-1.05,1.92-1.58,4.03-1.58,6.34s.53,4.43,1.58,6.34c1.05,1.92,2.48,3.43,4.29,4.53,1.81,1.1,3.86,1.66,6.17,1.66s4.36-.55,6.17-1.66c1.81-1.1,3.22-2.61,4.25-4.53,1.03-1.92,1.54-4.03,1.54-6.34Z"/>
    <path class="cls-1" d="M109.2,110.3c-6.92,0-13.06-1.45-18.43-4.33-5.37-2.89-9.58-6.89-12.64-12.01-3.06-5.12-4.59-11.02-4.59-17.69s1.53-12.59,4.59-17.77c3.06-5.17,7.27-9.24,12.64-12.21,5.36-2.97,11.51-4.45,18.43-4.45s12.95,1.48,18.24,4.45c5.29,2.97,9.43,7.04,12.41,12.21,2.98,5.17,4.48,11.1,4.48,17.77s-1.49,12.57-4.48,17.69c-2.98,5.12-7.12,9.13-12.41,12.01-5.29,2.89-11.37,4.33-18.24,4.33ZM109.2,87.53c2.06,0,3.84-.46,5.34-1.38,1.5-.92,2.66-2.25,3.46-3.98.8-1.73,1.2-3.75,1.2-6.07s-.4-4.25-1.2-5.99c-.8-1.73-1.96-3.08-3.46-4.06-1.5-.97-3.28-1.46-5.34-1.46s-3.91.49-5.42,1.46c-1.5.97-2.68,2.32-3.54,4.06-.85,1.73-1.28,3.73-1.28,5.99s.43,4.33,1.28,6.07c.85,1.73,2.03,3.06,3.54,3.98,1.5.92,3.31,1.38,5.42,1.38Z"/>
    <path class="cls-1" d="M177.95,110.3c-6.92,0-13.06-1.45-18.43-4.33-5.37-2.89-9.58-6.89-12.64-12.01-3.06-5.12-4.59-11.02-4.59-17.69s1.53-12.59,4.59-17.77c3.06-5.17,7.27-9.24,12.64-12.21,5.36-2.97,11.51-4.45,18.43-4.45s12.95,1.48,18.24,4.45c5.29,2.97,9.43,7.04,12.41,12.21,2.98,5.17,4.48,11.1,4.48,17.77s-1.49,12.57-4.48,17.69c-2.98,5.12-7.12,9.13-12.41,12.01-5.29,2.89-11.37,4.33-18.24,4.33ZM177.95,87.53c2.06,0,3.84-.46,5.34-1.38,1.5-.92,2.66-2.25,3.46-3.98.8-1.73,1.2-3.75,1.2-6.07s-.4-4.25-1.2-5.99c-.8-1.73-1.96-3.08-3.46-4.06-1.5-.97-3.28-1.46-5.34-1.46s-3.91.49-5.42,1.46c-1.5.97-2.68,2.32-3.54,4.06-.85,1.73-1.28,3.73-1.28,5.99s.43,4.33,1.28,6.07c.85,1.73,2.03,3.06,3.54,3.98,1.5.92,3.31,1.38,5.42,1.38Z"/>
    <path class="cls-1" d="M303.17,41.83c4.71,0,8.91,1,12.6,2.99s6.59,5.08,8.72,9.26,3.2,9.57,3.2,16.19v38.13h-26.17v-34.19c0-3.57-.54-6.59-1.62-9.06-1.08-2.47-3.35-3.7-6.81-3.7-2.21,0-4.06.58-5.56,1.73-1.51,1.16-2.62,2.69-3.35,4.61-.73,1.92-1.09,4.06-1.09,6.42v34.19h-24.37v-34.19c0-3.57-.54-6.59-1.62-9.06-1.08-2.47-3.32-3.7-6.73-3.7-2.21,0-4.06.57-5.57,1.69-1.5,1.13-2.63,2.65-3.38,4.57s-1.13,4.08-1.13,6.5v34.19h-26.4V43.73h26.4v8.98c.6-1.63,1.97-3.28,4.1-4.96,2.13-1.68,4.71-3.08,7.75-4.22,3.03-1.13,6.21-1.69,9.51-1.69,3.66,0,6.71.47,9.14,1.42,2.43.95,4.46,2.29,6.09,4.02,1.63,1.73,2.99,3.73,4.1,5.99.7-1.73,2.11-3.48,4.21-5.24,2.11-1.76,4.74-3.23,7.9-4.41,3.16-1.18,6.52-1.77,10.08-1.77Z"/>
    <path class="cls-1" d="M395.6,88.63c2.41,0,4.44-.46,6.09-1.38s2.81-1.72,3.46-2.4l12.03,18.75c-.9.79-2.34,1.71-4.32,2.76-1.98,1.05-4.44,1.97-7.37,2.76-2.93.79-6.28,1.18-10.04,1.18-7.67,0-14.28-1.45-19.82-4.33-5.54-2.89-9.8-6.91-12.79-12.05-2.98-5.15-4.47-11.11-4.47-17.88s1.49-12.8,4.47-17.92c2.98-5.12,7.25-9.11,12.79-11.97,5.54-2.86,12.15-4.29,19.82-4.29,3.66,0,6.97.38,9.93,1.14,2.96.76,5.48,1.65,7.56,2.68,2.08,1.02,3.57,1.93,4.47,2.72l-12.33,18.83c-.3-.32-.88-.77-1.73-1.38-.85-.6-1.92-1.14-3.2-1.61-1.28-.47-2.8-.71-4.55-.71-2.21,0-4.2.58-5.98,1.73-1.78,1.16-3.2,2.67-4.25,4.53-1.05,1.87-1.58,3.95-1.58,6.26s.53,4.41,1.58,6.3c1.05,1.89,2.47,3.41,4.25,4.57,1.78,1.16,3.77,1.73,5.98,1.73Z"/>
    <path class="cls-1" d="M447.87,110.3c-6.92,0-13.06-1.45-18.43-4.33s-9.58-6.89-12.63-12.01c-3.06-5.12-4.59-11.02-4.59-17.69s1.53-12.59,4.59-17.77c3.06-5.17,7.27-9.24,12.63-12.21,5.37-2.97,11.51-4.45,18.43-4.45s12.95,1.48,18.24,4.45c5.29,2.97,9.43,7.04,12.41,12.21,2.98,5.17,4.47,11.1,4.47,17.77s-1.49,12.57-4.47,17.69c-2.98,5.12-7.12,9.13-12.41,12.01s-11.37,4.33-18.24,4.33ZM447.87,87.53c2.06,0,3.84-.46,5.34-1.38,1.5-.92,2.66-2.25,3.46-3.98.8-1.73,1.2-3.75,1.2-6.07s-.4-4.25-1.2-5.99c-.8-1.73-1.96-3.08-3.46-4.06-1.5-.97-3.28-1.46-5.34-1.46s-3.91.49-5.42,1.46c-1.5.97-2.68,2.32-3.54,4.06s-1.28,3.73-1.28,5.99.43,4.33,1.28,6.07c.85,1.73,2.03,3.06,3.54,3.98,1.5.92,3.31,1.38,5.42,1.38Z"/>
    <path class="cls-1" d="M499.92,110.3c-4.11,0-7.63-1.54-10.57-4.61-2.93-3.07-4.4-6.76-4.4-11.07s1.47-8.15,4.4-11.23c2.93-3.07,6.46-4.61,10.57-4.61s7.71,1.54,10.64,4.61c2.93,3.07,4.4,6.81,4.4,11.23s-1.47,8-4.4,11.07c-2.93,3.07-6.48,4.61-10.64,4.61Z"/>
  </g>
  <g>
    <path class="cls-1" d="M87.37,3.16h-6.78V0h17.73v3.16h-6.78v19.03h-4.17V3.16Z"/>
    <path class="cls-1" d="M135.23,12.65h-11.44v9.55h-4.13V0h4.13v9.5h11.44V0h4.11v22.2h-4.11v-9.55Z"/>
    <path class="cls-1" d="M162.19,0h15.81v3.16h-11.68v6.37h11.48v3.08h-11.48v6.42h11.68v3.16h-15.81V0Z"/>
  </g>
</svg>